# xmcd
#
# Track frame offsets: 
#        150
#        11447
#        47780
#        96512
#        110037
#        124960
#        139302
#        154670
#        170747
#        186967
#        205909
#        218557
#        233227
#
# Disc length: 3272 seconds
#
# Revision: 3
# Processed by: cddbd v1.5.2PL0 Copyright (c) Steve Scherf et al.
# Submitted via: ExactAudioCopyFreeDBPlugin 1.0
#
DISCID=c00cc60d
DTITLE=Canned Heat - Let's Work Together [Goldies]
DYEAR=2001
DGENRE=Blues
TTITLE0=Talk to Me Baby
TTITLE1=I Wish You Would
TTITLE2=Sweet Sixteen
TTITLE3=Kings of the Boogie
TTITLE4=Stoned Bad Street Fighting Men
TTITLE5=So Fine
TTITLE6=You Can't Get Close to Me
TTITLE7=Hell's Just on Down the Road
TTITLE8=I Was Wrong
TTITLE9=Little Crystal
TTITLE10=Dog House Blues
TTITLE11=Sleepy Hollow Baby
TTITLE12=Chicken Shack Boogie
EXTD=
EXTT0=
EXTT1=
EXTT2=
EXTT3=
EXTT4=
EXTT5=
EXTT6=
EXTT7=
EXTT8=
EXTT9=
EXTT10=
EXTT11=
EXTT12=
PLAYORDER=
